# File created by Blade
# Date/Time:  Thu Jan 22 19:34:22 2015
#---------------------------------------------------------
:version 1.10
:name HOM
:units
  mass 1.0
  length 1.000000
  angle deg
:documentation
     Acclaim Skeleton File
:root
   axis xyz
   order TX TY TZ RX RY RZ
   position 0.000000 0.000000 0.000000
   orientation 0 0 0
:bonedata
   begin
      id 1
      name RightUpLeg_dum
      direction -1.000000 0.000000 0.000000
      length 4.478084
      axis 0.0 0.0 0.0 xyz
   end
   begin
      id 2
      name LeftUpLeg_dum
      direction 1.000000 0.000000 0.000000
      length 4.478084
      axis 0.0 0.0 0.0 xyz
   end
   begin
      id 3
      name Spine_dum
      direction 0.000000 1.000000 0.000000
      length 6.068208
      axis 0.0 0.0 0.0 xyz
   end
   begin
      id 4
      name RightUpLeg
      direction 0.000000 -1.000000 0.000000
      length 16.405774
      axis 0.0 0.0 0.0 xyz
      dof rx ry rz
   end
   begin
      id 5
      name RightLeg
      direction 0.000000 -1.000000 0.000000
      length 14.644143
      axis 0.0 0.0 0.0 xyz
      dof rx ry rz
   end
   begin
      id 6
      name RightFoot
      direction 0.000000 -0.258819 0.965926
      length 5.806150
      axis 15.0 0.0 0.0 xyz
      dof rx ry rz
   end
   begin
      id 7
      name RightToeBase
      direction 0.000000 0.000000 1.000000
      length 2.952750
      axis 0.0 0.0 0.0 xyz
      dof rx ry rz
   end
   begin
      id 8
      name LeftUpLeg
      direction 0.000000 -1.000000 0.000000
      length 16.405774
      axis 0.0 0.0 0.0 xyz
      dof rx ry rz
   end
   begin
      id 9
      name LeftLeg
      direction 0.000000 -1.000000 0.000000
      length 14.644143
      axis 0.0 0.0 0.0 xyz
      dof rx ry rz
   end
   begin
      id 10
      name LeftFoot
      direction 0.000000 -0.258819 0.965926
      length 5.806150
      axis 15.0 0.0 0.0 xyz
      dof rx ry rz
   end
   begin
      id 11
      name LeftToeBase
      direction 0.000000 0.000000 1.000000
      length 2.952750
      axis 0.0 0.0 0.0 xyz
      dof rx ry rz
   end
   begin
      id 12
      name Spine
      direction 0.000000 1.000000 0.000000
      length 0.000000
      axis 0.0 0.0 0.0 xyz
      dof rx ry rz
   end
   begin
      id 13
      name Spine_dum1
      direction 0.000000 1.000000 0.000000
      length 10.013923
      axis 0.0 0.0 0.0 xyz
   end
   begin
      id 14
      name Spine_dum2
      direction 0.000000 1.000000 0.000000
      length 10.013923
      axis 0.0 0.0 0.0 xyz
   end
   begin
      id 15
      name Spine_dum3
      direction 0.000000 1.000000 0.000000
      length 15.777476
      axis 0.0 0.0 0.0 xyz
   end
   begin
      id 16
      name RightShoulder
      direction -1.000000 0.000000 0.000000
      length 7.190220
      axis 0.0 0.0 90.0 xyz
      dof rx ry rz
   end
   begin
      id 17
      name RightArm
      direction -1.000000 0.000000 0.000000
      length 10.177469
      axis 0.0 0.0 90.0 xyz
      dof rx ry rz
   end
   begin
      id 18
      name RightForeArm
      direction -1.000000 0.000000 0.000000
      length 8.392114
      axis 0.0 0.0 90.0 xyz
      dof ry rz rx
   end
   begin
      id 19
      name RightHand
      direction -1.000000 0.000000 0.000000
      length 0.000000
      axis 0.0 0.0 90.0 xyz
      dof rx ry rz
   end
   begin
      id 20
      name RightHand_dum1
      direction -1.000000 0.000000 0.000000
      length 3.937000
      axis 0.0 0.0 90.0 xyz
   end
   begin
      id 21
      name RightHand_dum2
      direction 0.000000 0.000000 0.000000
      length 0.000000
      axis 0.0 0.0 90.0 xyz
   end
   begin
      id 22
      name RightHandThumb1
      direction 0.000000 0.000000 1.000000
      length 3.937000
      axis 0.0 0.0 90.0 xyz
      dof rx rz ry
   end
   begin
      id 23
      name LeftShoulder
      direction 1.000000 0.000000 0.000000
      length 7.190220
      axis 0.0 0.0 -90.0 xyz
      dof rx ry rz
   end
   begin
      id 24
      name LeftArm
      direction 1.000000 0.000000 0.000000
      length 10.177469
      axis 0.0 0.0 -90.0 xyz
      dof rx ry rz
   end
   begin
      id 25
      name LeftForeArm
      direction 1.000000 0.000000 0.000000
      length 8.392114
      axis 0.0 0.0 -90.0 xyz
      dof ry rz rx
   end
   begin
      id 26
      name LeftHand
      direction 1.000000 0.000000 0.000000
      length 0.000000
      axis 0.0 0.0 -90.0 xyz
      dof rx ry rz
   end
   begin
      id 27
      name LeftHand_dum1
      direction 1.000000 0.000000 0.000000
      length 3.937000
      axis 0.0 0.0 -90.0 xyz
   end
   begin
      id 28
      name LeftHand_dum2
      direction 0.000000 0.000000 0.000000
      length 0.000000
      axis 0.0 0.0 -90.0 xyz
   end
   begin
      id 29
      name LeftHandThumb1
      direction 0.000000 0.000000 1.000000
      length 3.937000
      axis 0.0 0.0 -90.0 xyz
      dof rx rz ry
   end
   begin
      id 30
      name Head
      direction 0.000000 1.000000 0.000000
      length 4.527550
      axis 0.0 0.0 0.0 xyz
      dof rx ry rz
   end
:hierarchy
   begin
      root RightUpLeg_dum LeftUpLeg_dum Spine_dum
      RightUpLeg_dum RightUpLeg
      LeftUpLeg_dum LeftUpLeg
      Spine_dum Spine
      RightUpLeg RightLeg
      RightLeg RightFoot
      RightFoot RightToeBase
      LeftUpLeg LeftLeg
      LeftLeg LeftFoot
      LeftFoot LeftToeBase
      Spine Spine_dum1 Spine_dum2 Spine_dum3
      Spine_dum1 RightShoulder
      Spine_dum2 LeftShoulder
      Spine_dum3 Head
      RightShoulder RightArm
      RightArm RightForeArm
      RightForeArm RightHand
      RightHand RightHand_dum1 RightHand_dum2
      RightHand_dum2 RightHandThumb1
      LeftShoulder LeftArm
      LeftArm LeftForeArm
      LeftForeArm LeftHand
      LeftHand LeftHand_dum1 LeftHand_dum2
      LeftHand_dum2 LeftHandThumb1
   end

# File created by Blade
# Date/Time:  Thu Jan 22 19:34:15 2015
# Frame Rate: 120.000 fps
#------------------------------------------------------
:FULLY-SPECIFIED
:DEGREES
310
root -1.515681 33.028352 -2.588097 9.154095 -21.879581 -0.807149
RightUpLeg -21.954706 -15.957739 -15.349051
RightLeg 12.366184 -0.000000 -0.000000
RightFoot 4.231750 -8.391656 1.503761
RightToeBase 0.393865 -0.000000 -0.000000
LeftUpLeg -6.801380 10.330750 -0.352220
LeftLeg 14.075112 -0.000000 -0.000000
LeftFoot -23.237326 13.193624 -19.494886
LeftToeBase 9.833800 -0.000000 -0.000000
Spine -5.933336 -0.790218 -5.081737
RightShoulder -20.459223 -19.127495 -14.796841
RightArm 24.820069 2.055249 52.364539
RightForeArm -19.844310 0.000000 53.539488
RightHand 11.557461 0.000000 10.033711
RightHandThumb1 -24.326973 -0.000000 -32.862282
LeftShoulder -23.707371 9.303418 23.692088
LeftArm 8.655289 -8.307697 -62.049658
LeftForeArm 20.992383 -0.000000 16.142533
LeftHand -0.499928 -0.000000 -15.381794
LeftHandThumb1 -26.253704 0.000000 33.147579
Head 15.323741 -12.024436 4.667167
311
root -1.610811 33.021540 -2.592034 9.168986 -21.985823 -0.912209
RightUpLeg -21.923502 -16.224241 -15.539076
RightLeg 12.219732 -0.000000 -0.000000
RightFoot 5.014790 -8.382364 1.346078
RightToeBase 0.719529 -0.000000 -0.000000
LeftUpLeg -6.854427 10.347214 -0.096971
LeftLeg 14.396319 -0.000000 -0.000000
LeftFoot -23.451858 13.198076 -19.713085
LeftToeBase 9.860067 -0.000000 -0.000000
Spine -6.005072 -0.839689 -5.159524
RightShoulder -20.389589 -19.140808 -14.756861
RightArm 24.852671 2.084812 52.218215
RightForeArm -19.817842 0.000000 53.618985
RightHand 11.531940 0.000000 9.757007
RightHandThumb1 -24.326973 -0.000000 -32.862282
LeftShoulder -23.763818 9.390361 23.603559
LeftArm 8.595415 -7.924427 -62.305296
LeftForeArm 21.161351 -0.000000 16.235200
LeftHand -0.507128 -0.000000 -15.318682
LeftHandThumb1 -26.253704 0.000000 33.147579
Head 15.642674 -12.354920 4.693801
312
root -1.708934 33.012629 -2.597243 9.148536 -22.082150 -1.008393
RightUpLeg -21.879880 -16.541044 -15.715138
RightLeg 12.133531 -0.000000 -0.000000
RightFoot 5.752820 -8.382931 1.079397
RightToeBase 0.833057 -0.000000 -0.000000
LeftUpLeg -6.859447 10.332084 0.159582
LeftLeg 14.686610 -0.000000 -0.000000
LeftFoot -23.669800 13.241849 -19.924639
LeftToeBase 9.834549 -0.000000 -0.000000
Spine -6.020822 -0.806611 -5.250273
RightShoulder -20.403489 -19.097426 -14.738250
RightArm 24.814502 2.051960 52.066491
RightForeArm -19.630842 -0.000000 53.749354
RightHand 11.181969 -0.000000 9.615091
RightHandThumb1 -24.326973 -0.000000 -32.862282
LeftShoulder -23.737111 9.387978 23.536648
LeftArm 8.491089 -7.614779 -62.539287
LeftForeArm 21.312543 -0.000000 16.348797
LeftHand -0.589400 0.000000 -15.400284
LeftHandThumb1 -26.253704 0.000000 33.147579
Head 15.913507 -12.742499 4.711064
313
root -1.813514 33.002800 -2.604635 9.145955 -22.178105 -1.108136
RightUpLeg -21.842492 -16.805987 -15.870499
RightLeg 12.073159 -0.000000 -0.000000
RightFoot 6.374763 -8.493882 1.030254
RightToeBase 0.998991 -0.000000 -0.000000
LeftUpLeg -6.895349 10.346937 0.431703
LeftLeg 15.006419 -0.000000 -0.000000
LeftFoot -23.898972 13.231940 -20.160478
LeftToeBase 9.870781 -0.000000 -0.000000
Spine -6.052943 -0.792487 -5.343308
RightShoulder -20.429755 -19.126639 -14.759199
RightArm 24.895519 2.130736 52.087034
RightForeArm -19.719212 -0.000000 53.726012
RightHand 11.399073 -0.000000 9.612757
RightHandThumb1 -24.326973 -0.000000 -32.862282
LeftShoulder -23.784019 9.515783 23.421310
LeftArm 8.563615 -7.289122 -62.778296
LeftForeArm 21.527351 0.000000 16.371607
LeftHand -0.538956 -0.000000 -15.155523
LeftHandThumb1 -26.253704 0.000000 33.147579
Head 16.174719 -13.055448 4.758144
314
root -1.920110 32.991531 -2.612369 9.136795 -22.285215 -1.172778
RightUpLeg -21.853867 -17.084765 -16.049671
RightLeg 12.134026 -0.000000 -0.000000
RightFoot 6.886852 -8.546377 1.031079
RightToeBase 1.147275 -0.000000 -0.000000
LeftUpLeg -6.913209 10.378422 0.666199
LeftLeg 15.286078 -0.000000 -0.000000
LeftFoot -24.079585 13.252514 -20.357557
LeftToeBase 9.796672 -0.000000 -0.000000
Spine -6.090703 -0.789408 -5.481541
RightShoulder -20.426872 -19.160792 -14.756097
RightArm 24.948542 2.156056 52.015814
RightForeArm -19.790646 -0.000000 53.749761
RightHand 11.600950 0.000000 9.635953
RightHandThumb1 -24.326973 -0.000000 -32.862282
LeftShoulder -23.798536 9.580550 23.344888
LeftArm 8.507603 -7.071689 -62.980829
LeftForeArm 21.667544 -0.000000 16.457758
LeftHand -0.614917 -0.000000 -15.237131
LeftHandThumb1 -26.253704 0.000000 33.147579
Head 16.424695 -13.351010 4.821938
